<svg width="167" height="26" viewBox="0 0 167 26" fill="none" xmlns="http://www.w3.org/2000/svg">
<path d="M17.208 22.392C17.232 22.896 17.508 23.208 18.036 23.328L18.648 23.436C19.176 23.556 19.44 23.844 19.44 24.3C19.44 24.756 19.14 24.984 18.54 24.984H11.88C11.28 24.984 10.98 24.756 10.98 24.3C10.98 23.868 11.256 23.592 11.808 23.472L12.564 23.328C13.092 23.208 13.368 22.896 13.392 22.392V14.544C13.392 13.104 13.212 12.084 12.852 11.484C12.492 10.86 11.856 10.548 10.944 10.548C10.2 10.548 9.48 10.728 8.784 11.088C8.088 11.424 7.356 11.976 6.588 12.744V22.356C6.588 22.908 6.852 23.232 7.38 23.328L7.992 23.436C8.52 23.556 8.784 23.844 8.784 24.3C8.784 24.756 8.484 24.984 7.884 24.984H1.26C0.66 24.984 0.36 24.756 0.36 24.3C0.36 23.868 0.636 23.592 1.188 23.472L1.908 23.328C2.436 23.208 2.712 22.896 2.736 22.392V3.996C2.736 3.444 2.46 3.132 1.908 3.06L0.828 2.916C0.276 2.844 0 2.592 0 2.16C0 1.728 0.252 1.44 0.756 1.296L5.472 0.0719991C5.592 0.0239997 5.688 0 5.76 0C5.856 0 5.952 0 6.048 0C6.216 0 6.324 0.0239997 6.372 0.0719991C6.516 0.167999 6.588 0.455999 6.588 0.935999L6.48 5.112V11.016C7.416 9.96 8.352 9.18 9.288 8.676C10.224 8.172 11.28 7.92 12.456 7.92C14.04 7.92 15.228 8.412 16.02 9.396C16.812 10.356 17.208 11.94 17.208 14.148V22.392Z" fill="#18181B"/>
<path d="M29.9858 7.92C31.2338 7.92 32.3737 8.16 33.4058 8.64C34.4378 9.096 35.3138 9.732 36.0338 10.548C36.7778 11.34 37.3418 12.276 37.7257 13.356C38.1338 14.412 38.3377 15.552 38.3377 16.776C38.3377 18.024 38.1338 19.188 37.7257 20.268C37.3418 21.324 36.7898 22.248 36.0698 23.04C35.3498 23.808 34.4737 24.42 33.4417 24.876C32.4097 25.308 31.2577 25.524 29.9858 25.524C28.7138 25.524 27.5618 25.308 26.5298 24.876C25.4978 24.42 24.6217 23.808 23.9018 23.04C23.1818 22.248 22.6178 21.324 22.2097 20.268C21.8257 19.188 21.6338 18.024 21.6338 16.776C21.6338 15.552 21.8257 14.4 22.2097 13.32C22.6178 12.24 23.1818 11.304 23.9018 10.512C24.6458 9.72 25.5218 9.096 26.5298 8.64C27.5618 8.16 28.7138 7.92 29.9858 7.92ZM29.9858 9.54C27.2257 9.54 25.8458 11.94 25.8458 16.74C25.8458 21.492 27.2257 23.868 29.9858 23.868C32.7458 23.868 34.1258 21.492 34.1258 16.74C34.1258 11.94 32.7458 9.54 29.9858 9.54Z" fill="#18181B"/>
<path d="M49.7545 22.608C50.0185 22.464 50.2465 22.392 50.4385 22.392C50.6305 22.392 50.7985 22.476 50.9425 22.644C51.2545 23.028 51.2305 23.412 50.8705 23.796C50.4145 24.276 49.8505 24.66 49.1785 24.948C48.5305 25.212 47.7505 25.344 46.8385 25.344C45.5185 25.344 44.4745 25.02 43.7065 24.372C42.9625 23.7 42.5905 22.656 42.5905 21.24C42.5905 20.928 42.5905 20.652 42.5905 20.412C42.5905 20.148 42.6025 19.896 42.6265 19.656V11.448C42.6265 10.848 42.3265 10.548 41.7265 10.548H40.9705C40.3705 10.548 40.0705 10.26 40.0705 9.684C40.0705 9.132 40.3465 8.82 40.8985 8.748L42.1585 8.604C42.6625 8.532 42.9625 8.244 43.0585 7.74L43.7065 4.5C43.8025 3.972 44.1265 3.708 44.6785 3.708H45.6865C46.2625 3.708 46.5505 4.008 46.5505 4.608L46.4785 7.632C46.4785 8.232 46.7785 8.532 47.3785 8.532H49.8625C50.4625 8.532 50.7625 8.832 50.7625 9.432V9.648C50.7625 10.248 50.4625 10.548 49.8625 10.548H47.3425C46.7425 10.548 46.4425 10.848 46.4425 11.448V20.556C46.4425 21.444 46.6105 22.08 46.9465 22.464C47.3065 22.848 47.7625 23.04 48.3145 23.04C48.5065 23.04 48.7225 23.016 48.9625 22.968C49.2265 22.896 49.4905 22.776 49.7545 22.608Z" fill="#18181B"/>
<path d="M68.5879 15.516C68.4919 16.044 68.1559 16.308 67.5799 16.308H57.1399C57.1879 18.492 57.7159 20.136 58.7239 21.24C59.7319 22.344 61.0399 22.896 62.6479 22.896C63.5839 22.896 64.3759 22.728 65.0239 22.392C65.6959 22.032 66.3079 21.54 66.8599 20.916C67.1239 20.628 67.3759 20.484 67.6159 20.484C67.7359 20.484 67.8439 20.52 67.9399 20.592C68.2999 20.832 68.3479 21.192 68.0839 21.672C67.4599 22.896 66.5599 23.832 65.3839 24.48C64.2079 25.128 62.8279 25.452 61.2439 25.452C59.8999 25.452 58.6999 25.224 57.6439 24.768C56.6119 24.312 55.7359 23.688 55.0159 22.896C54.3199 22.08 53.7919 21.12 53.4319 20.016C53.0719 18.912 52.8919 17.712 52.8919 16.416C52.8919 15.168 53.0959 13.98 53.5039 12.852C53.9119 11.724 54.4879 10.74 55.2319 9.9C55.9999 9.036 56.9119 8.364 57.9679 7.884C59.0479 7.38 60.2359 7.128 61.5319 7.128C62.6119 7.128 63.5839 7.308 64.4479 7.668C65.3359 8.028 66.0919 8.532 66.7159 9.18C67.3399 9.804 67.8199 10.56 68.1559 11.448C68.4919 12.336 68.6599 13.32 68.6599 14.4C68.6599 14.592 68.6599 14.784 68.6599 14.976C68.6599 15.144 68.6359 15.324 68.5879 15.516ZM57.2119 14.652H62.6119C63.4759 14.652 64.0519 14.472 64.3399 14.112C64.6519 13.752 64.8079 13.248 64.8079 12.6C64.8079 11.52 64.4959 10.62 63.8719 9.9C63.2719 9.18 62.5159 8.82 61.6039 8.82C60.8599 8.82 60.2119 9.012 59.6599 9.396C59.1319 9.756 58.6879 10.224 58.3279 10.8C57.9919 11.376 57.7279 12.012 57.5359 12.708C57.3679 13.38 57.2599 14.028 57.2119 14.652Z" fill="#18181B"/>
<path d="M77.4278 22.356C77.4278 22.908 77.6918 23.232 78.2198 23.328L78.9758 23.472C79.5038 23.568 79.7678 23.844 79.7678 24.3C79.7678 24.756 79.4678 24.984 78.8678 24.984H71.9918C71.3918 24.984 71.0918 24.756 71.0918 24.3C71.0918 23.868 71.3678 23.592 71.9198 23.472L72.7118 23.328C73.2398 23.232 73.5038 22.908 73.5038 22.356C73.5278 21.588 73.5398 20.82 73.5398 20.052C73.5638 19.284 73.5758 18.516 73.5758 17.748V3.996C73.5758 3.444 73.2998 3.132 72.7478 3.06L71.6678 2.916C71.1158 2.844 70.8398 2.592 70.8398 2.16C70.8398 1.728 71.1038 1.44 71.6318 1.296L76.3838 0.0719991C76.5038 0.0239997 76.5998 0 76.6718 0C76.7678 0 76.8638 0 76.9598 0C77.1278 0 77.2358 0.0239997 77.2838 0.0719991C77.4278 0.167999 77.4998 0.455999 77.4998 0.935999L77.3918 5.112V17.748C77.3918 18.516 77.3918 19.284 77.3918 20.052C77.4158 20.82 77.4278 21.588 77.4278 22.356Z" fill="#18181B"/>
<path d="M116.74 21.096C116.26 21.576 115.684 22.08 115.012 22.608C114.34 23.112 113.608 23.592 112.816 24.048C112.048 24.48 111.268 24.84 110.476 25.128C109.708 25.416 108.988 25.56 108.316 25.56C107.356 25.56 106.624 25.308 106.12 24.804C105.616 24.276 105.364 23.556 105.364 22.644C105.364 22.02 105.472 21.288 105.688 20.448C105.928 19.584 106.216 18.672 106.552 17.712C106.912 16.752 107.26 15.804 107.596 14.868C107.932 13.908 108.22 13.02 108.46 12.204C108.7 11.364 108.82 10.656 108.82 10.08C108.82 9.672 108.736 9.384 108.568 9.216C108.4 9.024 108.148 8.928 107.812 8.928C107.404 8.928 106.924 9.18 106.372 9.684C105.82 10.188 105.232 10.86 104.608 11.7C104.008 12.54 103.384 13.5 102.736 14.58C102.112 15.66 101.5 16.764 100.9 17.892C100.468 18.684 100.096 19.476 99.7844 20.268C99.4724 21.06 99.1964 21.792 98.9564 22.464C98.7164 23.136 98.4524 23.7 98.1644 24.156C97.6844 24.108 97.1804 24.024 96.6524 23.904C96.1244 23.784 95.6204 23.628 95.1404 23.436C94.6604 23.244 94.2524 23.04 93.9164 22.824C94.3244 22.008 94.7564 21.048 95.2124 19.944C95.6924 18.816 96.1244 17.652 96.5084 16.452C96.9164 15.252 97.2404 14.1 97.4804 12.996C97.7204 11.868 97.8404 10.884 97.8404 10.044C97.8404 9.66 97.7684 9.372 97.6244 9.18C97.5044 8.988 97.2644 8.892 96.9044 8.892C96.3284 8.892 95.6564 9.336 94.8884 10.224C94.1444 11.088 93.3284 12.288 92.4404 13.824C91.5524 15.36 90.5924 17.136 89.5604 19.152C88.5284 21.144 87.4484 23.28 86.3204 25.56C85.9364 25.536 85.4684 25.476 84.9164 25.38C84.3884 25.284 83.8724 25.164 83.3684 25.02C82.8884 24.876 82.5164 24.72 82.2524 24.552C82.4684 24.024 82.7444 23.304 83.0804 22.392C83.4164 21.48 83.7644 20.448 84.1244 19.296C84.4844 18.12 84.8204 16.92 85.1324 15.696C85.4684 14.472 85.7444 13.296 85.9604 12.168C86.2004 11.016 86.3564 9.996 86.4284 9.108L85.0964 7.704L85.1684 7.344C85.6724 7.248 86.2724 7.164 86.9684 7.092C87.6644 7.02 88.3724 6.96 89.0924 6.912C89.8124 6.864 90.4124 6.84 90.8924 6.84L91.2884 7.128C91.2884 8.184 91.1324 9.384 90.8204 10.728C90.5324 12.048 90.1364 13.416 89.6324 14.832C89.1524 16.224 88.6244 17.568 88.0484 18.864L88.4084 19.044C88.9604 18.084 89.5244 17.04 90.1004 15.912C90.6764 14.784 91.2884 13.692 91.9364 12.636C92.6084 11.556 93.3164 10.584 94.0604 9.72C94.8044 8.832 95.5964 8.136 96.4364 7.632C97.2764 7.104 98.1764 6.84 99.1364 6.84C100.288 6.84 101.14 7.128 101.692 7.704C102.244 8.256 102.52 8.976 102.52 9.864C102.52 10.536 102.388 11.316 102.124 12.204C101.86 13.068 101.536 13.92 101.152 14.76L101.548 14.868C102.316 13.5 103.132 12.204 103.996 10.98C104.86 9.756 105.796 8.76 106.804 7.992C107.812 7.224 108.892 6.84 110.044 6.84C111.196 6.84 112.072 7.14 112.672 7.74C113.272 8.34 113.572 9.108 113.572 10.044C113.572 10.596 113.44 11.328 113.176 12.24C112.912 13.128 112.588 14.112 112.204 15.192C111.82 16.248 111.424 17.316 111.016 18.396C110.632 19.476 110.308 20.472 110.044 21.384C109.804 22.272 109.684 22.98 109.684 23.508C109.684 23.892 109.732 24.156 109.828 24.3C110.692 24.132 111.532 23.82 112.348 23.364C113.188 22.884 113.968 22.344 114.688 21.744C115.432 21.144 116.068 20.592 116.596 20.088L116.74 20.16V21.096Z" fill="#007595"/>
<path d="M137.85 21.096C137.37 21.576 136.794 22.08 136.122 22.608C135.45 23.112 134.718 23.592 133.926 24.048C133.158 24.48 132.39 24.84 131.622 25.128C130.854 25.416 130.122 25.56 129.426 25.56C128.538 25.56 127.83 25.308 127.302 24.804C126.774 24.3 126.51 23.592 126.51 22.68C126.51 22.128 126.606 21.528 126.798 20.88C127.014 20.232 127.29 19.524 127.626 18.756C127.986 17.964 128.382 17.088 128.814 16.128L127.842 16.236C127.41 17.268 126.906 18.336 126.33 19.44C125.778 20.52 125.178 21.528 124.53 22.464C123.882 23.4 123.198 24.156 122.478 24.732C121.758 25.284 121.002 25.56 120.21 25.56C119.322 25.56 118.566 25.284 117.942 24.732C117.342 24.156 116.886 23.376 116.574 22.392C116.262 21.384 116.106 20.256 116.106 19.008C116.106 17.424 116.298 15.912 116.682 14.472C117.09 13.008 117.666 11.7 118.41 10.548C119.154 9.396 120.03 8.496 121.038 7.848C122.07 7.176 123.21 6.84 124.458 6.84C125.418 6.84 126.282 7.068 127.05 7.524C127.818 7.98 128.43 8.544 128.886 9.216L128.526 10.152C128.118 9.624 127.626 9.12 127.05 8.64C126.474 8.136 125.826 7.884 125.106 7.884C124.554 7.884 124.026 8.172 123.522 8.748C123.018 9.324 122.55 10.116 122.118 11.124C121.71 12.108 121.386 13.248 121.146 14.544C120.906 15.84 120.786 17.22 120.786 18.684C120.786 19.956 120.906 20.976 121.146 21.744C121.41 22.512 121.818 22.896 122.37 22.896C122.778 22.896 123.21 22.608 123.666 22.032C124.146 21.456 124.758 20.436 125.502 18.972C126.03 17.964 126.57 16.812 127.122 15.516C127.698 14.196 128.262 12.828 128.814 11.412C129.366 9.996 129.882 8.616 130.362 7.272C130.89 7.392 131.406 7.56 131.91 7.776C132.438 7.968 132.906 8.208 133.314 8.496C133.746 8.76 134.106 9.048 134.394 9.36C134.394 9.984 134.19 10.956 133.782 12.276C133.398 13.596 132.966 14.988 132.486 16.452C132.03 17.892 131.598 19.284 131.19 20.628C130.806 21.948 130.614 22.944 130.614 23.616C130.614 23.976 130.674 24.24 130.794 24.408C131.658 24.216 132.51 23.88 133.35 23.4C134.214 22.92 135.03 22.38 135.798 21.78C136.566 21.156 137.214 20.58 137.742 20.052L137.85 20.16V21.096Z" fill="#007595"/>
<path d="M150.097 20.196C149.521 20.772 148.813 21.372 147.973 21.996C147.157 22.62 146.281 23.208 145.345 23.76C144.409 24.288 143.485 24.72 142.573 25.056C141.661 25.392 140.833 25.56 140.089 25.56C139.153 25.56 138.385 25.296 137.785 24.768C137.209 24.216 136.921 23.46 136.921 22.5C136.921 21.804 137.029 20.916 137.245 19.836C137.461 18.732 137.725 17.544 138.037 16.272C138.373 14.976 138.709 13.728 139.045 12.528C139.189 11.928 139.345 11.328 139.513 10.728C139.681 10.128 139.801 9.624 139.873 9.216H138.073L138.433 8.388H140.161C141.001 8.028 141.805 7.452 142.573 6.66C143.341 5.868 144.001 4.98 144.553 3.996C145.105 2.988 145.489 2.004 145.705 1.044L146.461 1.44C146.317 2.304 146.089 3.36 145.777 4.608C145.489 5.856 145.165 7.116 144.805 8.388H148.621L148.261 9.216H144.589C144.445 9.696 144.289 10.236 144.121 10.836C143.953 11.412 143.797 11.952 143.653 12.456C143.389 13.44 143.113 14.472 142.825 15.552C142.537 16.632 142.273 17.688 142.033 18.72C141.817 19.728 141.637 20.652 141.493 21.492C141.349 22.308 141.277 22.98 141.277 23.508C141.277 23.7 141.289 23.88 141.313 24.048C141.337 24.192 141.385 24.312 141.457 24.408C141.985 24.336 142.633 24.132 143.401 23.796C144.169 23.436 144.961 23.004 145.777 22.5C146.617 21.972 147.397 21.42 148.117 20.844C148.861 20.268 149.473 19.728 149.953 19.224L150.097 19.332V20.196Z" fill="#007595"/>
<path d="M158.809 7.812C158.113 7.812 157.441 8.124 156.793 8.748C156.169 9.348 155.605 10.164 155.101 11.196C154.597 12.204 154.201 13.344 153.913 14.616C153.649 15.888 153.517 17.184 153.517 18.504C153.517 19.992 153.853 21.216 154.525 22.176C155.221 23.136 156.265 23.616 157.657 23.616C159.073 23.616 160.561 23.196 162.121 22.356C163.681 21.516 165.133 20.4 166.477 19.008L166.621 19.08V19.98C165.541 21.012 164.353 21.96 163.057 22.824C161.761 23.664 160.429 24.336 159.061 24.84C157.693 25.32 156.373 25.56 155.101 25.56C153.037 25.56 151.477 24.984 150.421 23.832C149.365 22.656 148.837 21.048 148.837 19.008C148.837 17.856 149.005 16.704 149.341 15.552C149.677 14.4 150.157 13.308 150.781 12.276C151.405 11.22 152.149 10.284 153.013 9.468C153.901 8.652 154.873 8.016 155.929 7.56C157.009 7.08 158.149 6.84 159.349 6.84C160.261 6.84 161.053 6.96 161.725 7.2C162.421 7.44 162.961 7.8 163.345 8.28C163.753 8.76 163.957 9.384 163.957 10.152C163.957 10.968 163.681 11.736 163.129 12.456C162.601 13.176 161.869 13.848 160.933 14.472C160.021 15.072 158.989 15.6 157.837 16.056C156.709 16.512 155.557 16.884 154.381 17.172L154.237 16.704C154.933 16.344 155.629 15.912 156.325 15.408C157.021 14.88 157.657 14.304 158.233 13.68C158.833 13.032 159.301 12.36 159.637 11.664C159.997 10.944 160.177 10.212 160.177 9.468C160.177 8.94 160.069 8.532 159.853 8.244C159.661 7.956 159.313 7.812 158.809 7.812Z" fill="#007595"/>
</svg>
