<svg preserveAspectRatio="none" width="100%" height="100%" overflow="visible" style="display: block;" viewBox="0 0 40.0132 24" fill="none" xmlns="http://www.w3.org/2000/svg">
<g id="hm">
<path d="M14.9744 8.61538C14.9744 9.17949 14.8205 9.90598 14.5128 10.7949C14.2051 11.6667 13.8718 12.5812 13.5128 13.5385C13.2906 14.1026 13.0513 14.7436 12.7949 15.4615C12.5556 16.1795 12.3162 16.9231 12.0769 17.6923C11.8547 18.4444 11.6667 19.188 11.5128 19.9231C11.3761 20.6752 11.3077 21.359 11.3077 21.9744C11.3077 22.3675 11.3761 22.6496 11.5128 22.8205C11.6667 22.9915 11.8632 23.0769 12.1026 23.0769C12.2735 23.0769 12.4444 23.0513 12.6154 23C12.8034 22.9658 12.9744 22.9145 13.1282 22.8462L13.2051 22.8974L13.1282 23.359C12.7863 23.5299 12.4188 23.6752 12.0256 23.7949C11.6325 23.9316 11.2051 24 10.7436 24C10.094 24 9.57265 23.8889 9.17949 23.6667C8.80342 23.4615 8.52137 23.1709 8.33333 22.7949C8.16239 22.4359 8.07692 22.0256 8.07692 21.5641C8.07692 20.5214 8.25641 19.3761 8.61538 18.1282C8.99145 16.8803 9.40171 15.6581 9.84615 14.4615C10.2906 13.2479 10.6923 12.1282 11.0513 11.1026C11.4103 10.0769 11.5897 9.25641 11.5897 8.64102C11.5897 8.35043 11.5214 8.13675 11.3846 8C11.265 7.86325 11.0855 7.79487 10.8462 7.79487C10.4359 7.79487 9.98291 8.03419 9.48718 8.51282C8.99145 8.99145 8.47863 9.62393 7.94872 10.4103C7.23077 11.5214 6.47009 12.8547 5.66667 14.4103C4.88034 15.9487 3.99145 17.7009 3 19.6667C2.4359 19.6154 1.89744 19.5299 1.38462 19.4103C0.888889 19.3077 0.42735 19.1538 0 18.9487C0.290598 18.2991 0.564103 17.547 0.820513 16.6923C1.07692 15.8376 1.32479 14.9487 1.5641 14.0256C1.82051 13.0855 2.05128 12.1538 2.25641 11.2308C2.47863 10.3077 2.68376 9.44444 2.8718 8.64102C3.05983 7.82051 3.23077 7.10256 3.38462 6.48718C3.91453 4.4359 4.79487 2.84615 6.02564 1.71795C7.25641 0.57265 8.66667 0 10.2564 0C11.094 0 11.7778 0.179487 12.3077 0.538462C12.8376 0.880342 13.1026 1.35897 13.1026 1.97436C13.1026 2.50427 12.9658 2.98291 12.6923 3.41026C12.4359 3.82051 12.0769 4.21368 11.6154 4.58974C11.1538 4.96581 10.6239 5.37607 10.0256 5.82051C9.37607 6.28205 8.67521 6.82051 7.92308 7.4359C7.18803 8.03419 6.47863 8.74359 5.79487 9.5641C5.60684 10.4359 5.40171 11.3162 5.17949 12.2051C4.95726 13.094 4.70085 14.0171 4.41026 14.9744L4.61538 15.0513C5.00855 14.265 5.4359 13.4359 5.89744 12.5641C6.35897 11.6752 6.86325 10.8291 7.41026 10.0256C7.87179 9.32479 8.35897 8.70085 8.8718 8.15385C9.40171 7.58974 9.96581 7.1453 10.5641 6.82051C11.1624 6.49573 11.7778 6.33333 12.4103 6.33333C13.2308 6.33333 13.8632 6.54701 14.3077 6.97436C14.7521 7.40171 14.9744 7.94872 14.9744 8.61538ZM6.58974 5.8718C6.48718 6.31624 6.39316 6.76068 6.30769 7.20513C6.22222 7.63248 6.1282 8.06838 6.02564 8.51282C6.47009 7.98291 6.90598 7.52137 7.33333 7.12821C7.76068 6.73504 8.15385 6.35897 8.51282 6C9.05983 5.48718 9.49573 4.94872 9.82051 4.38462C10.1624 3.82051 10.3333 3.11966 10.3333 2.28205C10.3333 1.66667 10.2393 1.22222 10.0513 0.948718C9.88034 0.675214 9.63248 0.538462 9.30769 0.538462C8.93162 0.538462 8.57265 0.769231 8.23077 1.23077C7.90598 1.67521 7.60684 2.29915 7.33333 3.10256C7.05983 3.90598 6.81197 4.82906 6.58974 5.8718Z" fill="var(--fill-0, #52525C)"/>
<path d="M40.0132 16.4872C39.6713 16.8291 39.2611 17.188 38.7824 17.5641C38.3038 17.9231 37.7824 18.265 37.2183 18.5897C36.6713 18.8974 36.1158 19.1538 35.5517 19.359C35.0047 19.5641 34.4919 19.6667 34.0132 19.6667C33.3295 19.6667 32.8081 19.4872 32.4491 19.1282C32.0901 18.7521 31.9107 18.2393 31.9107 17.5897C31.9107 17.1453 31.9876 16.6239 32.1414 16.0256C32.3124 15.4103 32.5175 14.7607 32.7568 14.0769C33.0132 13.3932 33.2611 12.7179 33.5004 12.0513C33.7397 11.3675 33.9448 10.735 34.1158 10.1538C34.2867 9.55556 34.3722 9.05128 34.3722 8.64102C34.3722 8.35043 34.3124 8.1453 34.1927 8.02564C34.073 7.88889 33.8936 7.82051 33.6542 7.82051C33.3636 7.82051 33.0218 8 32.6286 8.35897C32.2354 8.71795 31.8166 9.19658 31.3722 9.79487C30.9448 10.3932 30.5004 11.0769 30.0389 11.8462C29.5944 12.6154 29.1585 13.4017 28.7312 14.2051C28.4235 14.7692 28.1585 15.3333 27.9363 15.8974C27.7141 16.4615 27.5175 16.9829 27.3466 17.4615C27.1756 17.9402 26.9876 18.3419 26.7824 18.6667C26.4406 18.6325 26.0816 18.5726 25.7055 18.4872C25.3295 18.4017 24.9705 18.2906 24.6286 18.1538C24.2867 18.0171 23.9961 17.8718 23.7568 17.7179C24.0474 17.1368 24.3551 16.453 24.6799 15.6667C25.0218 14.8632 25.3295 14.0342 25.603 13.1795C25.8936 12.3248 26.1243 11.5043 26.2953 10.7179C26.4662 9.91453 26.5517 9.21367 26.5517 8.61538C26.5517 8.34188 26.5004 8.13675 26.3978 8C26.3124 7.86325 26.1414 7.79487 25.885 7.79487C25.4748 7.79487 24.9961 8.11111 24.4491 8.74359C23.9192 9.35897 23.338 10.2137 22.7055 11.3077C22.073 12.4017 21.3893 13.6667 20.6542 15.1026C19.9192 16.5214 19.15 18.0427 18.3466 19.6667C18.073 19.6496 17.7397 19.6068 17.3466 19.5385C16.9705 19.4701 16.603 19.3846 16.244 19.2821C15.9021 19.1795 15.6372 19.0684 15.4491 18.9487C15.603 18.5726 15.7995 18.0598 16.0389 17.4103C16.2782 16.7607 16.526 16.0256 16.7825 15.2051C17.0389 14.3675 17.2782 13.5128 17.5004 12.641C17.7397 11.7692 17.9363 10.9316 18.0901 10.1282C18.2611 9.30769 18.3722 8.5812 18.4235 7.94872L17.4748 6.94872L17.526 6.69231C17.885 6.62393 18.3124 6.5641 18.8081 6.51282C19.3038 6.46154 19.8081 6.4188 20.3209 6.38462C20.8337 6.35043 21.2611 6.33333 21.603 6.33333L21.885 6.53846C21.885 7.2906 21.7739 8.1453 21.5517 9.10256C21.3466 10.0427 21.0645 11.0171 20.7055 12.0256C20.3636 13.0171 19.9876 13.9744 19.5773 14.8974L19.8337 15.0256C20.2269 14.3419 20.6286 13.5983 21.0389 12.7949C21.4491 11.9915 21.885 11.2137 22.3466 10.4615C22.8252 9.69231 23.3295 9 23.8594 8.38462C24.3893 7.75214 24.9534 7.25641 25.5517 6.89744C26.15 6.52137 26.791 6.33333 27.4748 6.33333C28.2953 6.33333 28.9021 6.53846 29.2953 6.94872C29.6884 7.34188 29.885 7.8547 29.885 8.48718C29.885 8.96581 29.791 9.52137 29.603 10.1538C29.4149 10.7692 29.1842 11.3761 28.9107 11.9744L29.1927 12.0513C29.7397 11.0769 30.3209 10.1538 30.9363 9.28205C31.5517 8.41026 32.2183 7.70085 32.9363 7.15385C33.6542 6.60684 34.4235 6.33333 35.244 6.33333C36.0645 6.33333 36.6884 6.54701 37.1158 6.97436C37.5431 7.40171 37.7568 7.94872 37.7568 8.61538C37.7568 9.00855 37.6628 9.52991 37.4748 10.1795C37.2867 10.812 37.056 11.5128 36.7825 12.2821C36.5089 13.0342 36.2269 13.7949 35.9363 14.5641C35.6628 15.3333 35.432 16.0427 35.244 16.6923C35.073 17.3248 34.9876 17.8291 34.9876 18.2051C34.9876 18.4786 35.0218 18.6667 35.0901 18.7692C35.7055 18.6496 36.3038 18.4274 36.885 18.1026C37.4833 17.7607 38.0389 17.3761 38.5517 16.9487C39.0816 16.5214 39.5346 16.1282 39.9107 15.7692L40.0132 15.8205V16.4872Z" fill="#007595"/>
</g>
</svg>
